<svg width="21" height="20" viewBox="0 0 21 20" fill="none" xmlns="http://www.w3.org/2000/svg">
<path fill-rule="evenodd" clip-rule="evenodd" d="M10.345 4.70817C13.1871 5.17815 14.7368 6.87086 14.9052 9.69637C14.9316 10.1396 14.3115 10.3132 14.0819 9.92678C13.3786 8.74312 12.1462 8.04583 10.3422 7.83722L10.3405 9.7205C10.3402 10.0987 9.8558 10.2835 9.58143 10.01L6.21676 6.65636C6.05405 6.49418 6.05405 6.23881 6.21676 6.07663L9.58744 2.71699C9.86207 2.44326 10.3469 2.62861 10.3465 3.00721L10.345 4.70817ZM7.14464 6.36677L9.46034 8.67488L9.4615 7.37608C9.46172 7.13305 9.67803 6.94102 9.9326 6.95787C11.5316 7.06368 12.8121 7.49531 13.7565 8.25334C13.2245 6.64759 11.9378 5.74121 9.84801 5.48558C9.62805 5.45868 9.46338 5.28026 9.46357 5.06906L9.46448 4.05452L7.14464 6.36677Z" fill="white"/>
<path fill-rule="evenodd" clip-rule="evenodd" d="M10.6553 15.2918C7.81317 14.8219 6.26346 13.1291 6.0951 10.3036C6.06869 9.86037 6.68878 9.68682 6.91837 10.0732C7.62169 11.2569 8.85406 11.9542 10.6581 12.1628L10.6598 10.2795C10.6601 9.90125 11.1445 9.71652 11.4189 9.99L14.7835 13.3436C14.9463 13.5058 14.9463 13.7612 14.7835 13.9234L11.4129 17.283C11.1382 17.5567 10.6534 17.3714 10.6538 16.9928L10.6553 15.2918ZM13.8558 13.6333L11.5401 11.3252L11.539 12.624C11.5387 12.867 11.3224 13.059 11.0679 13.0422C9.46889 12.9364 8.18834 12.5047 7.24398 11.7467C7.77595 13.3525 9.06267 14.2588 11.1525 14.5145C11.3724 14.5414 11.5371 14.7198 11.5369 14.931L11.536 15.9455L13.8558 13.6333Z" fill="white"/>
</svg>
