<svg width="25" height="24" viewBox="0 0 25 24" fill="none" xmlns="http://www.w3.org/2000/svg">
<path fill-rule="evenodd" clip-rule="evenodd" d="M20.5 7.4955C20.5 5.45552 18.8863 3.8018 16.8956 3.8018H16.807C16.4134 2.73729 15.4099 2 14.2582 2H10.7418C9.59014 2 8.58663 2.73729 8.193 3.8018H8.1044C6.11374 3.8018 4.5 5.45552 4.5 7.4955V18.3063C4.5 20.3463 6.11374 22 8.1044 22H16.8956C18.8863 22 20.5 20.3463 20.5 18.3063V7.4955ZM8.1044 5.78378H8.193C8.58663 6.8483 9.59014 7.58559 10.7418 7.58559H14.2582C15.4099 7.58559 16.4134 6.8483 16.807 5.78378H16.8956C17.8181 5.78378 18.5659 6.55014 18.5659 7.4955V18.3063C18.5659 19.2517 17.8181 20.018 16.8956 20.018H8.1044C7.1819 20.018 6.43407 19.2517 6.43407 18.3063V7.4955C6.43407 6.55014 7.1819 5.78378 8.1044 5.78378ZM10.7418 3.98198C10.3048 3.98198 9.95055 4.34499 9.95055 4.79279C9.95055 5.24059 10.3048 5.6036 10.7418 5.6036H14.2582C14.6952 5.6036 15.0495 5.24059 15.0495 4.79279C15.0495 4.34499 14.6952 3.98198 14.2582 3.98198H10.7418ZM8.01648 10.1982C8.01648 10.7455 8.44944 11.1892 8.98352 11.1892H16.0165C16.5506 11.1892 16.9835 10.7455 16.9835 10.1982C16.9835 9.65089 16.5506 9.20721 16.0165 9.20721H8.98352C8.44944 9.20721 8.01648 9.65089 8.01648 10.1982ZM8.01648 13.8018C8.01648 14.3491 8.44944 14.7928 8.98352 14.7928H16.0165C16.5506 14.7928 16.9835 14.3491 16.9835 13.8018C16.9835 13.2545 16.5506 12.8108 16.0165 12.8108H8.98352C8.44944 12.8108 8.01648 13.2545 8.01648 13.8018ZM8.98352 18.3964C8.44944 18.3964 8.01648 17.9527 8.01648 17.4054C8.01648 16.8581 8.44944 16.4144 8.98352 16.4144H16.0165C16.5506 16.4144 16.9835 16.8581 16.9835 17.4054C16.9835 17.9527 16.5506 18.3964 16.0165 18.3964H8.98352Z" fill="white"/>
</svg>
