<svg width="25" height="24" viewBox="0 0 25 24" fill="none" xmlns="http://www.w3.org/2000/svg">
<path fill-rule="evenodd" clip-rule="evenodd" d="M12.5 2.05051C13.1353 1.40224 14.0207 1 15 1C16.7632 1 18.2219 2.30385 18.4646 4H21.5C22.6046 4 23.5 4.89543 23.5 6V8C23.5 9.10457 22.6046 10 21.5 10V21C21.5 22.1046 20.6046 23 19.5 23H5.5C4.39543 23 3.5 22.1046 3.5 21V10C2.39543 10 1.5 9.10457 1.5 8V6C1.5 4.89543 2.39543 4 3.5 4H6.53544C6.77806 2.30385 8.23676 1 10 1C10.9793 1 11.8647 1.40223 12.5 2.05051ZM13.5854 4H16.4146C16.2087 3.4174 15.6531 3 15 3C14.3469 3 13.7913 3.4174 13.5854 4ZM10 3C9.34689 3 8.79127 3.4174 8.58535 4H11.4146C11.2087 3.4174 10.6531 3 10 3ZM11.5 8H3.5V6H11.5V8ZM5.5 10V21H11.5V10H5.5ZM13.5 21V10H19.5V21H13.5ZM13.5 8V6H21.5V8H13.5Z" fill="white"/>
</svg>
