<svg width="25" height="24" viewBox="0 0 25 24" fill="none" xmlns="http://www.w3.org/2000/svg">
<path fill-rule="evenodd" clip-rule="evenodd" d="M6.5 12H7.5C9.70914 12 11.5 13.7909 11.5 16V18C11.5 20.2091 9.70914 22 7.5 22H6.5C4.29086 22 2.5 20.2091 2.5 18V16C2.5 13.7909 4.29086 12 6.5 12ZM6.5 14C5.39543 14 4.5 14.8954 4.5 16V18C4.5 19.1046 5.39543 20 6.5 20H7.5C8.60457 20 9.5 19.1046 9.5 18V16C9.5 14.8954 8.60457 14 7.5 14H6.5ZM6 2C7.933 2 9.5 3.567 9.5 5.5V6.5C9.5 8.433 7.933 10 6 10C4.067 10 2.5 8.433 2.5 6.5V5.5C2.5 3.567 4.067 2 6 2ZM6 4C5.17157 4 4.5 4.67157 4.5 5.5V6.5C4.5 7.32843 5.17157 8 6 8C6.82843 8 7.5 7.32843 7.5 6.5V5.5C7.5 4.67157 6.82843 4 6 4ZM17.5 11H18.5C20.7091 11 22.5 12.7909 22.5 15V18C22.5 20.2091 20.7091 22 18.5 22H17.5C15.2909 22 13.5 20.2091 13.5 18V15C13.5 12.7909 15.2909 11 17.5 11ZM17.5 13C16.3954 13 15.5 13.8954 15.5 15V18C15.5 19.1046 16.3954 20 17.5 20H18.5C19.6046 20 20.5 19.1046 20.5 18V15C20.5 13.8954 19.6046 13 18.5 13H17.5ZM15 2H19C20.933 2 22.5 3.567 22.5 5.5C22.5 7.433 20.933 9 19 9H15C13.067 9 11.5 7.433 11.5 5.5C11.5 3.567 13.067 2 15 2ZM15 4C14.1716 4 13.5 4.67157 13.5 5.5C13.5 6.32843 14.1716 7 15 7H19C19.8284 7 20.5 6.32843 20.5 5.5C20.5 4.67157 19.8284 4 19 4H15Z" fill="#B5BBC1"/>
</svg>
