<svg width="24" height="24" viewBox="0 0 24 24" fill="none" xmlns="http://www.w3.org/2000/svg">
<path fill-rule="evenodd" clip-rule="evenodd" d="M19.7273 5.65208C21.1474 7.37875 22 9.58974 22 11.9999C22 17.5227 17.5228 21.9999 12 21.9999C6.47715 21.9999 2 17.5227 2 11.9999C2 6.47702 6.47715 1.99987 12 1.99987C14.3924 1.99987 16.5886 2.84 18.3096 4.24133L18.8604 3.69051L19.1222 2.29613C19.2241 1.75333 19.7468 1.39591 20.2896 1.49782C20.8324 1.59972 21.1898 2.12236 21.0879 2.66516L21.0308 2.96909L21.3348 2.91203C21.8776 2.81013 22.4002 3.16755 22.5021 3.71035C22.604 4.25315 22.2466 4.77579 21.7038 4.87769L20.2239 5.15553L19.7273 5.65208ZM16.8861 5.66486C15.5346 4.62094 13.8398 3.99987 12 3.99987C7.58172 3.99987 4 7.58159 4 11.9999C4 16.4181 7.58172 19.9999 12 19.9999C16.4183 19.9999 20 16.4181 20 11.9999C20 10.1423 19.3669 8.43256 18.3047 7.07473L16.8763 8.5031C17.5835 9.48763 18 10.6951 18 11.9999C18 15.3136 15.3137 17.9999 12 17.9999C8.68629 17.9999 6 15.3136 6 11.9999C6 8.68616 8.68629 5.99987 12 5.99987C13.2869 5.99987 14.4792 6.40502 15.4562 7.09473L16.8861 5.66486ZM14.0101 8.54086C13.4195 8.19689 12.7327 7.99987 12 7.99987C9.79086 7.99987 8 9.79073 8 11.9999C8 14.209 9.79086 15.9999 12 15.9999C14.2091 15.9999 16 14.209 16 11.9999C16 11.249 15.7931 10.5465 15.4332 9.94615L13.9248 11.4546C13.9738 11.6279 14 11.8108 14 11.9999C14 13.1044 13.1046 13.9999 12 13.9999C10.8954 13.9999 10 13.1044 10 11.9999C10 10.8953 10.8954 9.99987 12 9.99987C12.1692 9.99987 12.3336 10.0209 12.4905 10.0605L14.0101 8.54086Z" fill="white"/>
</svg>
