<svg width="25" height="24" viewBox="0 0 25 24" fill="none" xmlns="http://www.w3.org/2000/svg">
<path fill-rule="evenodd" clip-rule="evenodd" d="M12.5 22V17.0238C12.5 16.2743 11.8895 15.6667 11.1364 15.6667H8.40909C7.65598 15.6667 7.04545 16.2743 7.04545 17.0238V22H7.0453H4.77273H3.19767C2.26744 22 2.26744 20.1905 3.19767 20.1905H4.31818V3.45238C4.31818 3.20254 4.52169 3 4.77273 3H14.7727C15.0238 3 15.2273 3.20254 15.2273 3.45238V20.1905H16.1364V8.42857H19.3182C19.5692 8.42857 19.7727 8.63111 19.7727 8.88095V11.1429H18.4091C17.803 11.1429 17.803 12.0476 18.4091 12.0476H19.7727V14.7619H18.4091C17.803 14.7619 17.803 15.6667 18.4091 15.6667H19.7727V18.381H18.4091C17.803 18.381 17.803 19.2857 18.4091 19.2857H19.7727V20.1905H21.8023C22.7326 20.1905 22.7326 22 21.8023 22H14.7727H13.3995H12.5ZM12.0455 10.2381C12.6515 10.2381 12.6515 9.33333 12.0455 9.33333H7.5C6.89394 9.33333 6.89394 10.2381 7.5 10.2381H12.0455ZM12.0455 5.71429C12.6515 5.71429 12.6515 6.61905 12.0455 6.61905H7.5C6.89394 6.61905 6.89394 5.71429 7.5 5.71429H12.0455ZM12.0455 13.8571C12.6515 13.8571 12.6515 12.9524 12.0455 12.9524H7.5C6.89394 12.9524 6.89394 13.8571 7.5 13.8571H12.0455ZM11.5909 17.0238V22H7.95455V17.0238C7.95455 16.774 8.15805 16.5714 8.40909 16.5714H11.1364C11.3874 16.5714 11.5909 16.774 11.5909 17.0238Z" fill="white"/>
</svg>
